<?xml version="1.0" encoding="UTF-8" standalone="no"?>
<!-- Created with Inkscape (http://www.inkscape.org/) -->

<svg
   width="96"
   height="96"
   viewBox="0 0 25.400001 25.4"
   version="1.1"
   id="svg1"
   inkscape:version="1.3.2 (091e20e, 2023-11-25)"
   sodipodi:docname="logo-96.svg"
   xmlns:inkscape="http://www.inkscape.org/namespaces/inkscape"
   xmlns:sodipodi="http://sodipodi.sourceforge.net/DTD/sodipodi-0.dtd"
   xmlns="http://www.w3.org/2000/svg"
   xmlns:svg="http://www.w3.org/2000/svg">
  <sodipodi:namedview
     id="namedview1"
     pagecolor="#ffffff"
     bordercolor="#999999"
     borderopacity="1"
     inkscape:showpageshadow="2"
     inkscape:pageopacity="0"
     inkscape:pagecheckerboard="true"
     inkscape:deskcolor="#d1d1d1"
     inkscape:document-units="mm"
     inkscape:zoom="6.5426272"
     inkscape:cx="53.571751"
     inkscape:cy="33.854901"
     inkscape:window-width="1392"
     inkscape:window-height="1212"
     inkscape:window-x="2287"
     inkscape:window-y="25"
     inkscape:window-maximized="0"
     inkscape:current-layer="g13" />
  <defs
     id="defs1">
    <inkscape:path-effect
       effect="powermask"
       id="path-effect14"
       is_visible="true"
       lpeversion="1"
       uri="#mask-powermask-path-effect14"
       invert="false"
       hide_mask="false"
       background="true"
       background_color="#ffffffff" />
    <inkscape:path-effect
       effect="powermask"
       id="path-effect12"
       is_visible="true"
       lpeversion="1"
       uri="#mask-powermask-path-effect12"
       invert="false"
       hide_mask="false"
       background="true"
       background_color="#ffffffff" />
    <inkscape:path-effect
       effect="powermask"
       id="path-effect2"
       is_visible="true"
       lpeversion="1"
       uri="#mask-powermask-path-effect2"
       invert="false"
       hide_mask="false"
       background="true"
       background_color="#ffffffff" />
    <filter
       id="mask-powermask-path-effect8_inverse"
       inkscape:label="filtermask-powermask-path-effect8"
       style="color-interpolation-filters:sRGB"
       height="100"
       width="100"
       x="-50"
       y="-50">
      <feColorMatrix
         id="mask-powermask-path-effect8_primitive1"
         values="1"
         type="saturate"
         result="fbSourceGraphic" />
      <feColorMatrix
         id="mask-powermask-path-effect8_primitive2"
         values="-1 0 0 0 1 0 -1 0 0 1 0 0 -1 0 1 0 0 0 1 0 "
         in="fbSourceGraphic" />
    </filter>
    <filter
       id="mask-powermask-path-effect9_inverse"
       inkscape:label="filtermask-powermask-path-effect9"
       style="color-interpolation-filters:sRGB"
       height="100"
       width="100"
       x="-50"
       y="-50">
      <feColorMatrix
         id="mask-powermask-path-effect9_primitive1"
         values="1"
         type="saturate"
         result="fbSourceGraphic" />
      <feColorMatrix
         id="mask-powermask-path-effect9_primitive2"
         values="-1 0 0 0 1 0 -1 0 0 1 0 0 -1 0 1 0 0 0 1 0 "
         in="fbSourceGraphic" />
    </filter>
    <mask
       maskUnits="userSpaceOnUse"
       id="mask-powermask-path-effect12">
      <path
         id="mask-powermask-path-effect12_box"
         style="fill:#ffffff;fill-opacity:1"
         d="M -2.0653167,-1.1919361 H 18.007682 V 17.505934 H -2.0653167 Z" />
      <g
         id="g12"
         transform="matrix(0.42541796,-0.61759877,0.57258886,0.45885907,-1.3547286,10.532623)"
         style="">
        <path
           style="fill:#000000;fill-opacity:1;stroke-width:0.264583"
           id="path9"
           d="m 16.399488,12.24188 c -0.0033,0.2714 -3.97e-4,0.542683 0.03809,0.812037 0.01464,0.102468 0.03598,0.203866 0.05396,0.3058 0.124938,0.494476 0.318211,0.971911 0.62169,1.384945 0.170898,0.232593 0.217012,0.259418 0.419267,0.449061 0.27882,0.223746 0.60892,0.355682 0.965874,0.377513 0.05137,0.0031 0.102931,9e-4 0.154396,0.0013 0.295074,-0.01206 0.541772,-0.114256 0.791086,-0.26425 0.229139,-0.147435 0.415065,-0.345178 0.564556,-0.571156 0.09245,-0.139154 0.147948,-0.297248 0.210967,-0.45075 0.01353,-0.03331 0.02686,-0.0667 0.03988,-0.100211 0.0021,-0.0055 0.01202,-0.01489 0.0064,-0.01649 -0.0057,-0.0016 -0.0018,0.01513 -0.0077,0.01612 -0.05119,0.0087 -0.10355,0.0076 -0.155325,0.01144 0.02845,0.07291 0.07207,0.14028 0.109959,0.209002 0.03906,0.07681 0.0935,0.144127 0.134986,0.219351 0.02982,0.04812 0.06963,0.08788 0.110073,0.126722 0.03413,0.03266 0.07381,0.05366 0.119806,0.06388 0.02843,0.0047 0.05726,0.0045 0.08597,0.0045 0.141421,-2.91e-4 0.141009,-0.200291 -4.23e-4,-0.199999 v 0 c -0.01495,3.5e-5 -0.02997,-2.57e-4 -0.04487,-3.18e-4 -0.01036,-5.29e-4 3e-6,-0.0018 0.0027,0.0058 0.0084,0.02355 -0.03062,-0.04124 -0.02735,-0.02063 -0.02721,-0.02237 -0.04935,-0.04979 -0.07107,-0.07706 -0.04186,-0.0749 -0.09461,-0.142864 -0.134728,-0.218885 -0.04172,-0.07545 -0.0855,-0.149685 -0.121833,-0.227923 -0.0571,-0.0037 -0.114299,-0.01607 -0.171308,-0.01113 -0.007,6.09e-4 -0.0559,0.13008 -0.06016,0.139927 -0.05815,0.141689 -0.108554,0.288061 -0.193126,0.416915 -0.131504,0.202023 -0.298206,0.377415 -0.500876,0.509797 -0.213323,0.129772 -0.433183,0.223985 -0.686474,0.23539 -0.378924,-6.87e-4 -0.681277,-0.08699 -0.984984,-0.325147 -0.06432,-0.05961 -0.132834,-0.114991 -0.192946,-0.178841 -0.404577,-0.429736 -0.640147,-0.979314 -0.787481,-1.543806 -0.01733,-0.09729 -0.03788,-0.194055 -0.05199,-0.291861 -0.03787,-0.262387 -0.04014,-0.526655 -0.03699,-0.791062 0,-0.141422 -0.2,-0.141422 -0.2,0 z" />
        <path
           style="fill:#000000;fill-opacity:1;stroke-width:0.264583"
           id="path10"
           d="m 21.575798,8.7284442 c -0.0012,0.38632 -0.0017,0.7724199 0.0097,1.1585877 0.02841,0.5365871 0.10441,1.0742351 0.286151,1.5822761 0.11555,0.32301 0.170578,0.400396 0.3293,0.697106 0.200785,0.325796 0.452701,0.617385 0.756621,0.850912 0.124113,0.09537 0.165288,0.113936 0.294144,0.18806 0.132778,0.07062 0.069,0.03895 0.190809,0.0961 0.128111,0.0599 0.212818,-0.12128 0.08471,-0.181176 v 0 c -0.11083,-0.05161 -0.05188,-0.02253 -0.176191,-0.08852 -0.414921,-0.235978 -0.719734,-0.555236 -0.973855,-0.959938 -0.150844,-0.280249 -0.204241,-0.355411 -0.314195,-0.660761 -0.176805,-0.491 -0.249807,-1.011122 -0.277579,-1.5299986 -0.01146,-0.3841861 -0.01075,-0.7683116 -0.0096,-1.1526512 0,-0.1414213 -0.2,-0.1414213 -0.2,0 z" />
        <path
           style="fill:#000000;fill-opacity:1;stroke-width:0.264583"
           id="path11"
           d="M 9.0740351,5.9914974 C 8.9864699,6.2653044 8.8412105,6.5188993 8.6944104,6.7644231 8.4583319,7.1592651 8.37762,7.2665602 8.1100286,7.6639289 7.4020385,8.6755847 6.6146764,9.6280453 5.8019156,10.556436 c -0.433777,0.486007 -0.8744659,0.967917 -1.3559706,1.407422 -0.1534361,0.139107 -0.3068071,0.278488 -0.4663172,0.410637 -0.1088467,0.09029 0.018844,0.244223 0.1276903,0.153932 v 0 C 4.2691163,12.394056 4.4251938,12.252959 4.5808278,12.111529 5.0675309,11.666679 5.5139857,11.180063 5.9524005,10.688172 6.7706697,9.7533964 7.5633386,8.794361 8.2759332,7.7756233 8.546064,7.3742901 8.6299753,7.2623883 8.8684906,6.8628921 9.023257,6.6036684 9.1751789,6.3357865 9.2663398,6.0464416 9.3051912,5.9104617 9.1128865,5.8555175 9.0740351,5.9914974 Z" />
        <path
           style="fill:#000000;fill-opacity:1;stroke-width:0.264583"
           id="path12"
           d="m 16.066065,8.0688642 c -0.194429,-0.00855 -0.319829,0.072589 -0.464986,0.1917562 -0.252435,0.2508145 -0.364484,0.5874957 -0.448203,0.9244981 -0.04675,0.2759866 -0.0746,0.5715704 0.0271,0.8396345 0.01678,0.04422 0.04065,0.08541 0.06098,0.128116 0.106804,0.17878 0.267375,0.313532 0.470635,0.368148 0.03747,0.01007 0.07628,0.01421 0.114422,0.02131 0.340325,0.02331 0.500569,-0.119039 0.714817,-0.36325 0.150919,-0.2084965 0.253214,-0.4553605 0.270327,-0.7144286 0.003,-0.045734 -7.94e-4,-0.091664 -0.0012,-0.1374957 -0.01628,-0.1788734 -0.08256,-0.3558421 -0.244477,-0.4512458 -0.02569,-0.015134 -0.05425,-0.024736 -0.08138,-0.037103 -0.153093,-0.036431 -0.313897,0.00895 -0.417828,0.1320286 -0.02497,0.029567 -0.04293,0.0644 -0.06439,0.096599 -0.09262,0.1905421 -0.124057,0.3991697 -0.109549,0.6088581 0.01971,0.1579618 0.09256,0.2884908 0.20852,0.3945074 0.05648,0.04587 0.123062,0.07008 0.192403,0.08789 0.137378,0.03357 0.184857,-0.1607108 0.04748,-0.1942832 v 0 c -0.03791,-0.00841 -0.07496,-0.020415 -0.107035,-0.043114 -0.07992,-0.067612 -0.126289,-0.1562039 -0.141943,-0.2601823 -0.01423,-0.1669116 0.01244,-0.3340568 0.07994,-0.4880173 0.05218,-0.095871 0.119506,-0.1563571 0.233589,-0.1504757 0.143543,0.054692 0.188046,0.1586995 0.204708,0.3079094 9.79e-4,0.035827 0.0049,0.071697 0.0029,0.107482 -0.01231,0.2201629 -0.09753,0.4313719 -0.223226,0.6100591 -0.147645,0.172759 -0.286757,0.315243 -0.529297,0.297241 -0.194033,-0.03076 -0.333737,-0.109508 -0.439626,-0.279964 -0.04428,-0.088466 -0.06417,-0.1152806 -0.08627,-0.2150907 -0.04489,-0.2027309 -0.02042,-0.4151662 0.01253,-0.6172002 0.07247,-0.2954885 0.166295,-0.5942144 0.382153,-0.8188616 0.09939,-0.084649 0.200101,-0.1562316 0.336867,-0.1453321 0.141421,0 0.141421,-0.1999999 0,-0.1999999 z" />
      </g>
    </mask>
    <filter
       id="mask-powermask-path-effect12_inverse"
       inkscape:label="filtermask-powermask-path-effect12"
       style="color-interpolation-filters:sRGB"
       height="100"
       width="100"
       x="-50"
       y="-50">
      <feColorMatrix
         id="mask-powermask-path-effect12_primitive1"
         values="1"
         type="saturate"
         result="fbSourceGraphic" />
      <feColorMatrix
         id="mask-powermask-path-effect12_primitive2"
         values="-1 0 0 0 1 0 -1 0 0 1 0 0 -1 0 1 0 0 0 1 0 "
         in="fbSourceGraphic" />
    </filter>
    <mask
       maskUnits="userSpaceOnUse"
       id="mask-powermask-path-effect14">
      <path
         id="mask-powermask-path-effect14_box"
         style="fill:#ffffff;fill-opacity:1"
         d="M -2.0653167,-1.1919361 H 18.007682 V 17.505934 H -2.0653167 Z" />
      <path
         id="path14"
         style="fill:#ffffff;fill-opacity:1"
         d="M -2.0653167,-1.1919361 H 18.007682 V 17.505934 H -2.0653167 Z" />
      <g
         id="g18"
         transform="matrix(0.42541796,-0.61759877,0.57258886,0.45885907,-1.3547286,10.532623)"
         style="">
        <path
           style="fill:#000000;fill-opacity:1;stroke-width:0.264583"
           id="path15"
           d="m 16.399488,12.24188 c -0.0033,0.2714 -3.97e-4,0.542683 0.03809,0.812037 0.01464,0.102468 0.03598,0.203866 0.05396,0.3058 0.124938,0.494476 0.318211,0.971911 0.62169,1.384945 0.170898,0.232593 0.217012,0.259418 0.419267,0.449061 0.27882,0.223746 0.60892,0.355682 0.965874,0.377513 0.05137,0.0031 0.102931,9e-4 0.154396,0.0013 0.295074,-0.01206 0.541772,-0.114256 0.791086,-0.26425 0.229139,-0.147435 0.415065,-0.345178 0.564556,-0.571156 0.09245,-0.139154 0.147948,-0.297248 0.210967,-0.45075 0.01353,-0.03331 0.02686,-0.0667 0.03988,-0.100211 0.0021,-0.0055 0.01202,-0.01489 0.0064,-0.01649 -0.0057,-0.0016 -0.0018,0.01513 -0.0077,0.01612 -0.05119,0.0087 -0.10355,0.0076 -0.155325,0.01144 0.02845,0.07291 0.07207,0.14028 0.109959,0.209002 0.03906,0.07681 0.0935,0.144127 0.134986,0.219351 0.02982,0.04812 0.06963,0.08788 0.110073,0.126722 0.03413,0.03266 0.07381,0.05366 0.119806,0.06388 0.02843,0.0047 0.05726,0.0045 0.08597,0.0045 0.141421,-2.91e-4 0.141009,-0.200291 -4.23e-4,-0.199999 v 0 c -0.01495,3.5e-5 -0.02997,-2.57e-4 -0.04487,-3.18e-4 -0.01036,-5.29e-4 3e-6,-0.0018 0.0027,0.0058 0.0084,0.02355 -0.03062,-0.04124 -0.02735,-0.02063 -0.02721,-0.02237 -0.04935,-0.04979 -0.07107,-0.07706 -0.04186,-0.0749 -0.09461,-0.142864 -0.134728,-0.218885 -0.04172,-0.07545 -0.0855,-0.149685 -0.121833,-0.227923 -0.0571,-0.0037 -0.114299,-0.01607 -0.171308,-0.01113 -0.007,6.09e-4 -0.0559,0.13008 -0.06016,0.139927 -0.05815,0.141689 -0.108554,0.288061 -0.193126,0.416915 -0.131504,0.202023 -0.298206,0.377415 -0.500876,0.509797 -0.213323,0.129772 -0.433183,0.223985 -0.686474,0.23539 -0.378924,-6.87e-4 -0.681277,-0.08699 -0.984984,-0.325147 -0.06432,-0.05961 -0.132834,-0.114991 -0.192946,-0.178841 -0.404577,-0.429736 -0.640147,-0.979314 -0.787481,-1.543806 -0.01733,-0.09729 -0.03788,-0.194055 -0.05199,-0.291861 -0.03787,-0.262387 -0.04014,-0.526655 -0.03699,-0.791062 0,-0.141422 -0.2,-0.141422 -0.2,0 z" />
        <path
           style="fill:#000000;fill-opacity:1;stroke-width:0.264583"
           id="path16"
           d="m 21.575798,8.7284442 c -0.0012,0.38632 -0.0017,0.7724199 0.0097,1.1585877 0.02841,0.5365871 0.10441,1.0742351 0.286151,1.5822761 0.11555,0.32301 0.170578,0.400396 0.3293,0.697106 0.200785,0.325796 0.452701,0.617385 0.756621,0.850912 0.124113,0.09537 0.165288,0.113936 0.294144,0.18806 0.132778,0.07062 0.069,0.03895 0.190809,0.0961 0.128111,0.0599 0.212818,-0.12128 0.08471,-0.181176 v 0 c -0.11083,-0.05161 -0.05188,-0.02253 -0.176191,-0.08852 -0.414921,-0.235978 -0.719734,-0.555236 -0.973855,-0.959938 -0.150844,-0.280249 -0.204241,-0.355411 -0.314195,-0.660761 -0.176805,-0.491 -0.249807,-1.011122 -0.277579,-1.5299986 -0.01146,-0.3841861 -0.01075,-0.7683116 -0.0096,-1.1526512 0,-0.1414213 -0.2,-0.1414213 -0.2,0 z" />
        <path
           style="fill:#000000;fill-opacity:1;stroke-width:0.264583"
           id="path17"
           d="M 9.0740351,5.9914974 C 8.9864699,6.2653044 8.8412105,6.5188993 8.6944104,6.7644231 8.4583319,7.1592651 8.37762,7.2665602 8.1100286,7.6639289 7.4020385,8.6755847 6.6146764,9.6280453 5.8019156,10.556436 c -0.433777,0.486007 -0.8744659,0.967917 -1.3559706,1.407422 -0.1534361,0.139107 -0.3068071,0.278488 -0.4663172,0.410637 -0.1088467,0.09029 0.018844,0.244223 0.1276903,0.153932 v 0 C 4.2691163,12.394056 4.4251938,12.252959 4.5808278,12.111529 5.0675309,11.666679 5.5139857,11.180063 5.9524005,10.688172 6.7706697,9.7533964 7.5633386,8.794361 8.2759332,7.7756233 8.546064,7.3742901 8.6299753,7.2623883 8.8684906,6.8628921 9.023257,6.6036684 9.1751789,6.3357865 9.2663398,6.0464416 9.3051912,5.9104617 9.1128865,5.8555175 9.0740351,5.9914974 Z" />
        <path
           style="fill:#000000;fill-opacity:1;stroke-width:0.264583"
           id="path18"
           d="m 16.066065,8.0688642 c -0.194429,-0.00855 -0.319829,0.072589 -0.464986,0.1917562 -0.252435,0.2508145 -0.364484,0.5874957 -0.448203,0.9244981 -0.04675,0.2759866 -0.0746,0.5715704 0.0271,0.8396345 0.01678,0.04422 0.04065,0.08541 0.06098,0.128116 0.106804,0.17878 0.267375,0.313532 0.470635,0.368148 0.03747,0.01007 0.07628,0.01421 0.114422,0.02131 0.340325,0.02331 0.500569,-0.119039 0.714817,-0.36325 0.150919,-0.2084965 0.253214,-0.4553605 0.270327,-0.7144286 0.003,-0.045734 -7.94e-4,-0.091664 -0.0012,-0.1374957 -0.01628,-0.1788734 -0.08256,-0.3558421 -0.244477,-0.4512458 -0.02569,-0.015134 -0.05425,-0.024736 -0.08138,-0.037103 -0.153093,-0.036431 -0.313897,0.00895 -0.417828,0.1320286 -0.02497,0.029567 -0.04293,0.0644 -0.06439,0.096599 -0.09262,0.1905421 -0.124057,0.3991697 -0.109549,0.6088581 0.01971,0.1579618 0.09256,0.2884908 0.20852,0.3945074 0.05648,0.04587 0.123062,0.07008 0.192403,0.08789 0.137378,0.03357 0.184857,-0.1607108 0.04748,-0.1942832 v 0 c -0.03791,-0.00841 -0.07496,-0.020415 -0.107035,-0.043114 -0.07992,-0.067612 -0.126289,-0.1562039 -0.141943,-0.2601823 -0.01423,-0.1669116 0.01244,-0.3340568 0.07994,-0.4880173 0.05218,-0.095871 0.119506,-0.1563571 0.233589,-0.1504757 0.143543,0.054692 0.188046,0.1586995 0.204708,0.3079094 9.79e-4,0.035827 0.0049,0.071697 0.0029,0.107482 -0.01231,0.2201629 -0.09753,0.4313719 -0.223226,0.6100591 -0.147645,0.172759 -0.286757,0.315243 -0.529297,0.297241 -0.194033,-0.03076 -0.333737,-0.109508 -0.439626,-0.279964 -0.04428,-0.088466 -0.06417,-0.1152806 -0.08627,-0.2150907 -0.04489,-0.2027309 -0.02042,-0.4151662 0.01253,-0.6172002 0.07247,-0.2954885 0.166295,-0.5942144 0.382153,-0.8188616 0.09939,-0.084649 0.200101,-0.1562316 0.336867,-0.1453321 0.141421,0 0.141421,-0.1999999 0,-0.1999999 z" />
      </g>
    </mask>
    <filter
       id="mask-powermask-path-effect14_inverse"
       inkscape:label="filtermask-powermask-path-effect14"
       style="color-interpolation-filters:sRGB"
       height="100"
       width="100"
       x="-50"
       y="-50">
      <feColorMatrix
         id="mask-powermask-path-effect14_primitive1"
         values="1"
         type="saturate"
         result="fbSourceGraphic" />
      <feColorMatrix
         id="mask-powermask-path-effect14_primitive2"
         values="-1 0 0 0 1 0 -1 0 0 1 0 0 -1 0 1 0 0 0 1 0 "
         in="fbSourceGraphic" />
    </filter>
  </defs>
  <g
     inkscape:label="Layer 1"
     inkscape:groupmode="layer"
     id="layer1"
     sodipodi:insensitive="true"
     style="display:none">
    <path
       id="path1"
       style="fill:#262541;fill-opacity:1;stroke-width:0.264583"
       inkscape:transform-center-x="-0.43011668"
       inkscape:transform-center-y="2.1201507"
       transform="matrix(0.83605701,1.1252862,-1.0432766,0.77512615,12.121069,-6.6396538)"
       d="M 17.007682,16.505934 -1.0653167,10.751639 15.55467,-0.19193612 Z"
       sodipodi:nodetypes="cccc"
       mask="url(#mask-powermask-path-effect12)"
       inkscape:label="path1"
       inkscape:path-effect="#path-effect12"
       inkscape:original-d="M 17.007682,16.505934 -1.0653167,10.751639 15.55467,-0.19193612 Z" />
    <ellipse
       style="display:none;fill:#000000;fill-opacity:1;stroke-width:0.264583"
       id="ellipse2"
       cx="17.227407"
       cy="10.069541"
       rx="0.36395928"
       ry="0.40439922" />
  </g>
  <g
     inkscape:label="Layer 1 copy"
     inkscape:groupmode="layer"
     id="g13"
     style="display:inline">
    <path
       id="path13"
       style="fill:#f2f2f2;fill-opacity:1;stroke-width:0.264583"
       inkscape:transform-center-x="-0.43011668"
       inkscape:transform-center-y="2.1201507"
       transform="matrix(0.83605701,1.1252862,-1.0432766,0.77512615,12.121069,-6.6396538)"
       d="M 17.007682,16.505934 -1.0653167,10.751639 15.55467,-0.19193612 Z"
       sodipodi:nodetypes="cccc"
       mask="url(#mask-powermask-path-effect14)"
       inkscape:label="path1"
       inkscape:path-effect="#path-effect14"
       inkscape:original-d="M 17.007682,16.505934 -1.0653167,10.751639 15.55467,-0.19193612 Z" />
    <ellipse
       style="display:none;fill:#000000;fill-opacity:1;stroke-width:0.264583"
       id="ellipse13"
       cx="17.227407"
       cy="10.069541"
       rx="0.36395928"
       ry="0.40439922" />
  </g>
</svg>
